HIERARCHY
ROOT pelvis
{
	OFFSET 0.000000 0.000000 0.000000
	CHANNELS 6 Xposition Yposition Zposition Zrotation Xrotation Yrotation
	JOINT lfemur
	{
		OFFSET 11.446000 0.000000 0.000000
		CHANNELS 3 Zrotation Xrotation Yrotation
		JOINT ltibia
		{
			OFFSET 0.000000 -42.030400 0.000000
			CHANNELS 3 Zrotation Xrotation Yrotation
			JOINT lfoot
			{
				OFFSET 0.000000 -39.930200 0.000000
				CHANNELS 3 Zrotation Xrotation Yrotation
				JOINT ltoes
				{
					OFFSET 0.000000 0.000000 11.775800
					CHANNELS 3 Zrotation Xrotation Yrotation
					End Site
					{
					    OFFSET 0.000000 0.000000 5.000000
					}
				}
			}
		}
	}
	JOINT rfemur
	{
		OFFSET -11.446000 0.000000 0.000000
		CHANNELS 3 Zrotation Xrotation Yrotation
		JOINT rtibia
		{
			OFFSET 0.000000 -42.030400 0.000000
			CHANNELS 3 Zrotation Xrotation Yrotation
			JOINT rfoot
			{
				OFFSET 0.000000 -39.930200 0.000000
				CHANNELS 3 Zrotation Xrotation Yrotation
				JOINT rtoes
				{
					OFFSET 0.000000 0.000000 11.775800
					CHANNELS 3 Zrotation Xrotation Yrotation
					End Site
					{
					    OFFSET 0.000000 0.000000 5.000000
					}
				}
			}
		}
	}
	JOINT thorax
	{
		OFFSET 0.000000 11.255600 -5.000000
		CHANNELS 3 Zrotation Xrotation Yrotation
		JOINT head
		{
			OFFSET 0.000000 43.799300 0.000000
			CHANNELS 3 Zrotation Xrotation Yrotation
			End Site
			{
			    OFFSET 0.000000 5.000000 0.000000
			}
		}
		JOINT lclavicle
		{
			OFFSET 0.000000 39.863000 0.000000
			CHANNELS 3 Zrotation Xrotation Yrotation
			JOINT lhumerus
			{
				OFFSET 17.380600 4.958300 0.000000
				CHANNELS 3 Zrotation Xrotation Yrotation
				JOINT lradius
				{
					OFFSET 0.000000 -27.561300 0.000000
					CHANNELS 3 Zrotation Xrotation Yrotation
					JOINT lhand
					{
						OFFSET 0.000000 -26.933000 0.000000
						CHANNELS 3 Zrotation Xrotation Yrotation
						End Site
						{
						    OFFSET 0.000000 -5.000000 0.000000
						}
					}
				}
			}
		}
		JOINT rclavicle
		{
			OFFSET 0.000000 39.863000 0.000000
			CHANNELS 3 Zrotation Xrotation Yrotation
			JOINT rhumerus
			{
				OFFSET -17.380600 4.958300 0.000000
				CHANNELS 3 Zrotation Xrotation Yrotation
				JOINT rradius
				{
					OFFSET 0.000000 -27.561300 0.000000
					CHANNELS 3 Zrotation Xrotation Yrotation
					JOINT rhand
					{
						OFFSET 0.000000 -26.933000 0.000000
						CHANNELS 3 Zrotation Xrotation Yrotation
						End Site
						{
						    OFFSET 0.000000 -5.000000 0.000000
						}
					}
				}
			}
		}
	}
}
MOTION
Frames:	18
Frame Time:	0.0333333
203.234 85.7457 -7.91764 -2.1256 1.2569 -83.2644 -1.19148 -10.9708 0.166505 2.57095 27.686 2.98182 0.243207 -4.76711 -0.321391 -1.11323e-015 -5 3.1927e-015 -2.29615 -11.6437 4.20922 -3.41525 17.4361 10.1659 7.53834 4.63036 -0.561491 1.0734e-015 -5 3.1927e-015 -7.50626 6.00928 -1.40487 6.45445 22.363 -6.79451 -1.59028e-015 4.57205e-015 2.38542e-015 17.8266 -15.1349 57.4745 0.167963 0.0360973 -116.618 8.56439 -9.09767 -8.85918 -1.59028e-015 4.57205e-015 2.38542e-015 -13.7246 -6.89284 -12.8472 13.4966 -12.8602 43.8639 -0.984868 -3.59065 9.85707 
203.602 85.9756 -7.34844 -2.21269 1.70573 -85.6121 -0.984744 -10.3504 0.71735 2.26927 26.699 4.88909 0.407182 -4.34147 -0.334164 2.0475e-015 -5 -1.59635e-015 -1.56612 -11.3569 3.56205 -2.75314 18.1763 5.21525 8.42465 4.49704 -0.418363 -1.05851e-015 -5 -1.59635e-015 -7.33032 5.72473 -1.2537 6.15622 23.0041 -5.70612 -3.18055e-015 2.5842e-015 -3.97569e-016 18.5541 -14.8223 58.0135 0.656451 -0.126323 -117.409 8.65136 -9.19658 -8.83041 -3.18055e-015 2.5842e-015 -3.97569e-016 -13.0771 -6.68616 -13.7461 13.7732 -12.0669 44.9356 -1.06158 -3.78295 9.84925 
203.884 86.2086 -6.84094 -2.21927 2.01263 -87.6148 -1.04187 -9.58378 0.966302 2.03034 25.3121 6.78389 0.442468 -3.72832 -0.343661 1.13305e-015 -5 1.59635e-015 -0.923218 -10.7919 3.12195 -2.24423 19.1418 0.463854 7.80528 3.77249 -0.269387 1.03269e-014 -5 -2.39453e-015 -7.26162 5.15174 -1.16463 6.17462 23.9221 -4.89955 -2.6186e-033 -1.00635e-015 -1.49089e-016 19.3207 -14.3398 58.6779 0.973054 -0.0897641 -117.324 8.79044 -8.4436 -8.87233 -2.6186e-033 -1.00635e-015 -1.49089e-016 -12.4816 -6.11349 -14.5459 13.9782 -11.4152 46.2444 -1.64795 -3.69685 9.80402 
204.105 86.3615 -6.43284 -2.08102 2.24971 -89.2653 -0.930154 -9.14827 1.23539 1.74962 24.2735 8.27261 0.287538 -3.26763 -0.376211 2.70351e-015 -5 -3.1927e-015 -0.0673292 -10.1782 2.93598 -1.7706 20.2702 -3.75908 5.97285 2.40867 -0.17852 -1.35222e-014 -5 -9.17902e-015 -7.06896 4.62212 -1.18283 5.97082 24.3803 -4.21794 3.18055e-015 1.51573e-015 -0 19.8538 -13.7583 59.3034 1.14611 -0.139092 -116.951 8.64693 -8.23259 -8.90318 3.18055e-015 1.51573e-015 -0 -12.089 -5.76285 -14.3429 14.0661 -11.2403 46.4774 -1.41165 -3.40221 9.82619 
204.28 86.497 -6.09569 -1.92597 2.51616 -90.6084 -0.864563 -8.81839 1.34418 1.58641 23.368 9.50413 0.172284 -2.85154 -0.412778 4.1943e-015 -5 4.78906e-015 0.699631 -9.42328 2.40518 -1.37862 21.4249 -5.95538 4.82632 1.09527 -0.128775 5.30753e-015 -5 1.59635e-015 -6.62543 4.03748 -1.21173 5.67458 24.5548 -3.75987 -0 -3.62782e-015 -0 19.9785 -13.0766 59.7018 1.4453 -0.109047 -116.472 8.67664 -8.16914 -8.90606 -0 -3.62782e-015 -0 -12.2053 -5.48157 -14.265 14.3204 -10.7362 47.1098 -1.35185 -3.26795 9.8323 
204.468 86.6029 -5.80812 -1.70558 2.60443 -91.7528 -0.976413 -8.66457 1.31936 1.491 22.6383 10.7358 0.251469 -2.49416 -0.417659 4.37326e-015 -5 -0 1.47589 -8.92574 2.38589 -1.13516 22.8996 -6.67019 3.99419 -0.0328692 -0.104382 2.72333e-015 -5 1.59635e-015 -6.52471 3.65864 -1.15082 5.54182 24.4711 -3.2256 6.89673e-033 -9.93923e-016 3.97569e-016 20.4539 -12.7964 60.0432 1.23499 -0.115561 -116.046 8.71132 -7.8367 -8.92621 6.89673e-033 -9.93923e-016 3.97569e-016 -12.0734 -5.45778 -14.6564 14.4297 -10.3127 48.1059 -1.21419 -3.10483 9.84419 
204.64 86.6905 -5.66859 -1.52089 2.8926 -92.7207 -0.87147 -8.7119 1.32032 1.53883 22.3905 11.7519 0.260489 -2.3556 -0.416772 -1.98785e-015 -5 -0 2.69818 -8.28601 3.0918 -1.03567 24.0724 -6.78803 3.66406 -0.728379 -0.0941011 3.78682e-015 -5 2.39453e-015 -6.18756 3.28329 -1.0615 5.52373 24.7526 -2.72858 1.93108e-032 1.39149e-015 -7.95139e-016 20.5024 -12.4741 60.3483 1.39445 -0.102604 -116.079 9.76642 -8.19686 -8.77585 1.93108e-032 1.39149e-015 -7.95139e-016 -12.1068 -5.6871 -17.4894 14.7452 -8.66921 51.2322 -1.35923 -3.36463 9.83161 
204.84 86.6697 -5.55403 -1.19041 2.83607 -93.6784 -1.10093 -9.13393 1.14912 1.62727 22.5209 12.8878 0.215045 -2.35265 -0.415206 3.77691e-015 -5 -0 3.66352 -7.38649 3.86793 -1.0033 23.809 -6.29967 2.54133 -1.24389 -0.213309 -4.96962e-015 -5 -0 -6.20881 2.79467 -1.00794 5.18944 25.048 -1.86994 1.59028e-015 7.95139e-016 -0 20.5761 -12.2325 60.7719 1.38856 -0.0509719 -116.134 9.68816 -8.23662 -8.7842 1.59028e-015 7.95139e-016 -0 -12.0335 -5.81184 -17.2917 14.7384 -8.63197 51.2647 -1.3628 -2.62822 9.83923 
204.972 86.6721 -5.45998 -0.935633 2.66443 -94.2487 -1.33799 -9.35082 1.0277 1.56593 22.3287 13.5458 0.336003 -2.20253 -0.406141 -1.33184e-015 -5 -1.59635e-015 4.48273 -6.36188 4.49224 -1.28019 23.1775 -5.42687 1.55136 -1.9911 -0.304415 -6.76859e-015 -5 -2.39453e-015 -6.0933 2.23694 -0.953831 4.76454 25.702 -1.45702 -1.59028e-015 -5.06901e-015 -0 20.1788 -11.9356 60.746 1.37487 -0.133378 -116.277 9.56403 -8.19606 -8.79783 -1.59028e-015 -5.06901e-015 -0 -12.2233 -5.79395 -17.707 14.7427 -8.41889 51.6743 -1.23414 -2.4566 9.84981 
204.971 86.6498 -5.39644 -0.974417 2.32325 -94.2337 -1.68813 -9.21335 0.904918 1.41693 22.0741 13.6826 0.58605 -2.09652 -0.393013 9.93923e-016 -5 -0 4.85562 -5.2227 3.91744 -1.7441 22.3366 -4.90068 0.999911 -2.63362 -0.268746 7.95139e-016 -5 -0 -6.14386 1.73396 -1.00856 4.4991 26.5383 -1.38947 -1.59028e-015 2.88238e-015 -0 19.7269 -11.6811 60.5299 1.53758 -0.117326 -116.932 9.49979 -8.32354 -8.79555 -1.59028e-015 2.88238e-015 -0 -12.4252 -5.33926 -17.919 14.7168 -8.37687 51.6085 -1.16676 -2.61446 9.85302 
205.026 86.4996 -5.25945 -0.843769 1.51694 -94.0586 -2.59714 -9.46267 0.468121 1.28716 22.0527 13.9746 0.811228 -2.03235 -0.378001 4.77047e-016 -5 3.1927e-015 4.11098 -4.50624 2.26427 -1.88032 20.7064 -5.54815 0.239636 -3.61456 -0.150916 -4.57205e-015 -5 -0 -6.31107 1.39259 -1.02825 3.84469 27.0432 -1.4043 3.18055e-015 5.36719e-015 -0 19.0991 -12.0525 60.4877 1.45953 -0.060334 -117.623 8.73136 -8.05233 -8.91174 3.18055e-015 5.36719e-015 -0 -13.004 -5.2595 -19.4937 14.6635 -7.87738 52.7861 -1.2228 -2.88369 9.8466 
205.072 86.3577 -5.11072 -0.767089 0.615663 -93.8385 -3.61412 -9.52768 -0.0050488 1.08122 21.786 14.353 1.10639 -1.87416 -0.356335 -3.97569e-016 -5 -0 2.84812 -3.93797 0.80885 -1.65234 19.189 -5.00844 -0.275683 -4.41023 -0.113926 -1.14301e-015 -5 -0 -6.22009 1.0536 -1.00002 2.76141 27.5257 -1.56889 2.38542e-015 1.19271e-015 7.95139e-016 18.1632 -12.2946 60.5451 1.28345 -0.0902321 -118.244 8.56353 -8.26789 -8.91331 2.38542e-015 1.19271e-015 7.95139e-016 -13.8435 -5.07097 -18.4199 14.672 -8.10211 52.4512 -1.63757 -2.51715 9.82159 
205.091 86.397 -5.00555 -0.87549 0.311409 -93.6143 -4.04011 -9.14733 -0.356121 1.04141 21.1 14.5122 1.40505 -1.49303 -0.343128 2.48481e-015 -5 -0 2.11033 -3.55197 -0.0462607 -1.37078 18.6177 -4.02569 0.334596 -4.17488 -0.0457088 -2.38542e-015 -5 -0 -5.20205 1.01012 -0.939358 1.71826 28.0324 -1.71019 0 4.72114e-015 -0 16.9831 -12.4228 60.5403 1.01818 0.0307008 -118.098 8.78472 -8.11251 -8.90578 0 4.72114e-015 -0 -14.8302 -4.99272 -18.4295 14.5875 -7.98275 52.816 -1.30552 -2.73257 9.84198 
205.131 86.4399 -4.97931 -0.891611 0.216653 -93.2546 -4.21803 -8.99452 -0.546411 1.09694 20.6711 14.3973 1.56965 -1.20278 -0.327802 2.38524e-016 -5 1.59635e-015 1.7542 -3.34799 -0.55071 -0.964645 18.2288 -3.97782 0.310961 -4.0072 -0.0346281 -1.13305e-015 -5 -1.59635e-015 -4.56892 0.966318 -0.926644 1.33528 28.5881 -1.72065 1.59028e-015 9.93923e-016 1.59028e-015 16.0085 -12.5721 60.919 0.909778 -0.0719368 -118.03 8.85218 -7.97495 -8.90259 1.59028e-015 9.93923e-016 1.59028e-015 -15.4937 -5.40218 -20.3962 14.6134 -6.69575 55.3225 -1.36088 -2.88509 9.83628 
205.203 86.4811 -5.03446 -0.780777 0.175986 -92.7317 -4.26353 -9.06196 -0.651968 1.1401 20.3848 14.0297 1.73241 -0.950507 -0.322278 2.02759e-015 -5 1.59635e-015 1.56164 -3.29695 -0.892192 -0.589693 17.9087 -4.1965 0.110281 -3.87481 -0.0496383 -2.18663e-015 -5 -0 -4.18645 0.837242 -0.898489 1.54646 29.2446 -2.42203 7.95139e-016 -7.45443e-016 -1.59028e-015 15.0516 -12.5746 60.7106 1.00168 -0.0848046 -118.161 8.38881 -8.20165 -8.93902 7.95139e-016 -7.45443e-016 -1.59028e-015 -15.991 -5.58855 -20.7247 14.6384 -6.42728 55.7016 -1.50918 -2.7642 9.82709 
205.247 86.4856 -5.13033 -0.746284 0.034295 -92.0164 -4.31264 -9.03593 -0.714158 1.12554 20.0826 13.3004 1.71938 -0.692022 -0.318767 1.31201e-015 -5 -3.1927e-015 1.47922 -3.32551 -1.03301 -0.44893 17.9986 -4.81524 0.0785455 -3.99564 -0.0525222 5.96534e-017 -5 -1.59635e-015 -4.30645 0.751091 -0.901415 2.37396 29.8495 -3.10986 -1.84487e-032 -2.65874e-015 -3.97569e-016 14.6573 -12.4468 59.493 0.360713 -0.0741817 -117.916 8.66092 -8.09669 -8.91466 -1.84487e-032 -2.65874e-015 -3.97569e-016 -16.0416 -5.41468 -19.2547 14.6213 -7.39819 53.8983 -1.36886 -2.71105 9.83751 
205.262 86.4733 -5.18038 -0.762911 -0.317247 -91.1359 -4.48197 -8.90231 -0.851727 1.09484 19.6317 12.6029 1.62921 -0.320636 -0.32749 5.5858e-015 -5 4.78906e-015 1.29719 -3.49136 -1.22833 -0.375772 18.5428 -5.49331 0.0267213 -4.39279 -0.0433386 -4.37326e-015 -5 -0 -4.71391 0.711892 -1.0276 3.52276 30.0905 -3.78016 -0 -1.9133e-015 -0 14.8856 -12.3048 58.2118 -0.385901 -0.0558682 -118.28 8.5953 -8.60944 -8.88483 -0 -1.9133e-015 -0 -15.8358 -5.3804 -18.0609 14.6119 -8.22422 51.9788 -1.41723 -2.42913 9.83765 
205.303 86.4387 -5.34607 -0.645958 -0.0337953 -90.2846 -4.63387 -9.12751 -1.05128 1.09998 19.586 11.9583 1.66798 -0.214185 -0.333861 8.54792e-016 -5 -1.59635e-015 1.14611 -3.52302 -1.39458 -0.27297 18.5061 -6.15044 0.41245 -4.3924 0.0122344 -1.98785e-016 -5 -0 -4.74622 0.675301 -1.15312 4.27945 29.8849 -4.44867 -0 -2.48481e-015 -0 14.813 -12.3936 57.3852 -0.828133 -0.104272 -118.643 8.61462 -8.5329 -8.88395 -0 -2.48481e-015 -0 -15.7048 -5.47596 -19.2155 14.4437 -8.19855 52.2839 -1.50819 -2.60634 9.82932 
